<svg xmlns="http://www.w3.org/2000/svg" viewBox="0 0 1600 1000" role="img" aria-labelledby="title desc">
  <title id="title">BC Partners - 24 bornes IRVE pour 10 000 mètres carrés de bureaux</title>
  <desc id="desc">Visuel technique SERILEC créé pour illustrer la référence IRVE BC Partners en l'absence de photographies publiques vérifiables du chantier.</desc>
  <defs>
    <linearGradient id="bg" x1="0" y1="0" x2="1" y2="1">
      <stop offset="0" stop-color="#061a31"/>
      <stop offset=".62" stop-color="#123f70"/>
      <stop offset="1" stop-color="#376caf"/>
    </linearGradient>
    <linearGradient id="glass" x1="0" y1="0" x2="1" y2="1">
      <stop offset="0" stop-color="#dfeaf5"/>
      <stop offset="1" stop-color="#8fb2d5"/>
    </linearGradient>
    <filter id="shadow" x="-20%" y="-20%" width="140%" height="140%">
      <feDropShadow dx="0" dy="18" stdDeviation="22" flood-color="#00152c" flood-opacity=".32"/>
    </filter>
  </defs>
  <rect width="1600" height="1000" fill="url(#bg)"/>
  <g opacity=".14" stroke="#fff" stroke-width="2">
    <path d="M0 160h1600M0 320h1600M0 480h1600M0 640h1600M0 800h1600"/>
    <path d="M160 0v1000M320 0v1000M480 0v1000M640 0v1000M800 0v1000M960 0v1000M1120 0v1000M1280 0v1000M1440 0v1000"/>
  </g>
  <g transform="translate(92 82)">
    <rect width="308" height="44" rx="22" fill="#fff200"/>
    <text x="154" y="29" text-anchor="middle" font-family="Arial,Helvetica,sans-serif" font-size="20" font-weight="700" fill="#001a36" letter-spacing="2">ILLUSTRATION DE PROJET</text>
  </g>
  <text x="92" y="215" font-family="Arial,Helvetica,sans-serif" font-size="82" font-weight="900" fill="#fff">BC PARTNERS</text>
  <text x="94" y="278" font-family="Arial,Helvetica,sans-serif" font-size="30" font-weight="700" fill="#a9c7e8" letter-spacing="3">INFRASTRUCTURE DE RECHARGE TERTIAIRE</text>
  <text x="94" y="410" font-family="Arial,Helvetica,sans-serif" font-size="124" font-weight="900" fill="#fff200">24</text>
  <text x="270" y="388" font-family="Arial,Helvetica,sans-serif" font-size="52" font-weight="850" fill="#fff">BORNES IRVE</text>
  <text x="274" y="438" font-family="Arial,Helvetica,sans-serif" font-size="30" font-weight="650" fill="#d9e7f7">pour un ensemble de bureaux de 10 000 m²</text>
  <g transform="translate(850 115)" filter="url(#shadow)">
    <path d="M0 620V80L250 0l250 80v540z" fill="url(#glass)"/>
    <path d="M250 0v620M0 80l250 92 250-92" fill="none" stroke="#fff" stroke-opacity=".72" stroke-width="8"/>
    <g fill="#0b2c51" opacity=".9">
      <rect x="48" y="135" width="118" height="70" rx="8"/><rect x="334" y="135" width="118" height="70" rx="8"/>
      <rect x="48" y="235" width="118" height="70" rx="8"/><rect x="334" y="235" width="118" height="70" rx="8"/>
      <rect x="48" y="335" width="118" height="70" rx="8"/><rect x="334" y="335" width="118" height="70" rx="8"/>
      <rect x="48" y="435" width="118" height="70" rx="8"/><rect x="334" y="435" width="118" height="70" rx="8"/>
      <rect x="196" y="210" width="108" height="118" rx="8"/><rect x="196" y="365" width="108" height="140" rx="8"/>
    </g>
  </g>
  <g transform="translate(125 590)" filter="url(#shadow)">
    <rect x="0" y="0" width="286" height="312" rx="38" fill="#fff"/>
    <rect x="48" y="46" width="190" height="106" rx="18" fill="#001a36"/>
    <path d="M126 68h52l-28 46h38l-69 82 21-62h-39z" fill="#fff200"/>
    <rect x="75" y="196" width="136" height="21" rx="10" fill="#d8e6f5"/>
    <circle cx="143" cy="258" r="28" fill="#eef4fb" stroke="#24548f" stroke-width="7"/>
    <path d="M286 98c94 0 101 62 101 128v62" fill="none" stroke="#fff200" stroke-width="16" stroke-linecap="round"/>
    <circle cx="387" cy="307" r="27" fill="#001a36" stroke="#fff200" stroke-width="9"/>
  </g>
  <g transform="translate(535 650)">
    <path d="M0 110 52 28q18-28 55-28h230q37 0 57 31l52 79v102H0z" fill="#fff" filter="url(#shadow)"/>
    <path d="M97 30h207l47 73H52z" fill="#a9c7e8"/>
    <circle cx="97" cy="214" r="42" fill="#001a36" stroke="#d8e6f5" stroke-width="9"/>
    <circle cx="350" cy="214" r="42" fill="#001a36" stroke="#d8e6f5" stroke-width="9"/>
    <path d="M205 52h42l-22 39h30l-54 62 16-46h-31z" fill="#fff200"/>
  </g>
  <g transform="translate(1090 775)">
    <rect width="418" height="126" rx="26" fill="#001a36" opacity=".94"/>
    <text x="209" y="47" text-anchor="middle" font-family="Arial,Helvetica,sans-serif" font-size="24" font-weight="800" fill="#fff">ÉTUDE • PROTECTIONS • PILOTAGE</text>
    <text x="209" y="84" text-anchor="middle" font-family="Arial,Helvetica,sans-serif" font-size="22" font-weight="650" fill="#fff200">PHOTOS DE CHANTIER NON PUBLIÉES</text>
  </g>
</svg>
