<svg xmlns="http://www.w3.org/2000/svg" viewBox="0 0 1200 675" role="img" aria-label="Visuel SERILEC équipe et transmission">
  <defs>
    <linearGradient id="bg" x1="0" y1="0" x2="1" y2="1">
      <stop offset="0" stop-color="#001a36"/>
      <stop offset="1" stop-color="#062a53"/>
    </linearGradient>
    <linearGradient id="pane" x1="0" y1="0" x2="1" y2="1">
      <stop offset="0" stop-color="#0a3b70" stop-opacity=".95"/>
      <stop offset="1" stop-color="#062a53" stop-opacity=".35"/>
    </linearGradient>
  </defs>
  <rect width="1200" height="675" rx="28" fill="url(#bg)"/>
  <path d="M0 520 L360 250 L630 675 H0Z" fill="#0a3b70" opacity=".22"/>
  <path d="M1200 0 L770 0 L1040 360 L1200 260Z" fill="#376caf" opacity=".16"/>
  <g opacity=".22" stroke="#376caf" fill="none">
    <path d="M720 115h330v250H720z"/>
    <path d="M750 145h270v190H750z"/>
    <path d="M790 105v270M845 105v270M900 105v270M955 105v270"/>
  </g>
  <rect x="160" y="118" width="360" height="440" rx="28" fill="url(#pane)" stroke="#376caf" stroke-width="2"/>
  <rect x="680" y="118" width="360" height="440" rx="28" fill="url(#pane)" stroke="#376caf" stroke-width="2"/>
  <g transform="translate(250 215)" fill="none" stroke="#fff200" stroke-width="14" stroke-linecap="round" stroke-linejoin="round">
    <path d="M22 150h175"/>
    <path d="M48 146c0-66 36-108 62-118 21 8 42 23 58 48 15 23 22 46 22 70"/>
    <path d="M86 25v40M130 25v40"/>
    <path d="M34 150v25h150v-25"/>
  </g>
  <g transform="translate(770 205)" fill="none" stroke="#fff200" stroke-width="12" stroke-linecap="round" stroke-linejoin="round">
    <rect x="18" y="25" width="170" height="205" rx="10"/>
    <path d="M55 75h98M55 115h98M55 155h60"/>
    <path d="M120 210l54-54 26 26-54 54-38 10z"/>
  </g>
  <circle cx="600" cy="338" r="34" fill="#fff200"/>
  <path d="M580 338h40M600 318v40" stroke="#001a36" stroke-width="8" stroke-linecap="round"/>
  <path d="M95 88h130" stroke="#fff200" stroke-width="8"/>
  <path d="M975 590h130" stroke="#fff200" stroke-width="8"/>
</svg>