<svg xmlns="http://www.w3.org/2000/svg" xmlns:xlink="http://www.w3.org/1999/xlink" width="356.09" height="96.33"><g opacity=".3"><defs><path id="a" d="M67.23 30.5v6.86c0 .3.1.6.26.85a30.31 30.31 0 015.06 16.7c0 8.51-3.67 16.36-9.5 22h14.78c4.93-5.77 7.89-13.14 7.89-22a42.8 42.8 0 00-8.39-25.34c-.3-.4-.77-.64-1.27-.64H68.8c-.86 0-1.57.7-1.57 1.57"/></defs><clipPath id="c"><use overflow="visible" xlink:href="#a"/></clipPath><linearGradient id="b" x1="-21.87" x2="-20.87" y1="125.77" y2="125.77" gradientTransform="matrix(22.6622 0 0 -22.6622 558.57 2903.2)" gradientUnits="userSpaceOnUse"><stop offset="0" stop-color="#dadbdc"/><stop offset=".89" stop-color="#8a8c8e"/><stop offset="1" stop-color="#8a8c8e"/></linearGradient><path fill="url(#b)" d="M63.06 28.93h22.66v47.99H63.06z" clip-path="url(#c)"/></g><g opacity=".3"><defs><path id="d" d="M5.03 11.28h65.03v65.64H5.03z"/></defs><clipPath id="e"><use overflow="visible" xlink:href="#d"/></clipPath><g clip-path="url(#e)"><defs><path id="f" d="M20.14 76.92a30.73 30.73 0 01-9.42-22c0-16.77 13.97-30.83 30.91-30.83 6.8 0 13.13 2.28 18.27 6.1 1.03.77 2.5.02 2.5-1.26v-3.27c0-.87.7-1.57 1.56-1.57h4.52a1.57 1.57 0 001-2.8 44.04 44.04 0 00-27.84-10.01c-24.02 0-36.61 18.7-36.61 42.6 0 9.21 1.7 16.97 5.14 23.04h9.97z"/></defs><clipPath id="h"><use overflow="visible" xlink:href="#f"/></clipPath><linearGradient id="g" x1="-21.87" x2="-20.87" y1="125.77" y2="125.77" gradientTransform="matrix(65.032 0 0 -65.032 1426.98 8223.29)" gradientUnits="userSpaceOnUse"><stop offset="0" stop-color="#dadbdc"/><stop offset=".89" stop-color="#8a8c8e"/><stop offset="1" stop-color="#8a8c8e"/></linearGradient><path fill="url(#g)" d="M5.03 11.28h65.6v65.64H5.03z" clip-path="url(#h)"/></g></g><g opacity=".3"><defs><path id="i" d="M192.68 2.28h10.41v10.41h-10.41z"/></defs><clipPath id="j"><use overflow="visible" xlink:href="#i"/></clipPath><g clip-path="url(#j)"><defs><path id="k" d="M203.1 7.49a5.2 5.2 0 10-10.42 0 5.2 5.2 0 0010.41 0"/></defs><clipPath id="m"><use overflow="visible" xlink:href="#k"/></clipPath><linearGradient id="l" x1="-21.87" x2="-20.87" y1="125.77" y2="125.77" gradientTransform="matrix(10.414 0 0 -10.414 420.39 1317.28)" gradientUnits="userSpaceOnUse"><stop offset="0" stop-color="#dadbdc"/><stop offset=".89" stop-color="#8a8c8e"/><stop offset="1" stop-color="#8a8c8e"/></linearGradient><path fill="url(#l)" d="M192.68 2.28h10.41v10.41h-10.41z" clip-path="url(#m)"/></g></g><path fill="#1199BE" d="M205.38 5.2a5.2 5.2 0 10-10.42 0 5.2 5.2 0 0010.42 0"/><path fill="#86888A" d="M200.17 76.86a2.37 2.37 0 01-2.36-2.37V25.95a2.37 2.37 0 014.73 0V74.5c0 1.3-1.06 2.37-2.37 2.37m-34.31-.01a2.37 2.37 0 01-2.37-2.37V25.95a2.37 2.37 0 014.73 0V74.5c0 1.3-1.06 2.37-2.36 2.37m94.56-.01a2.37 2.37 0 01-2.37-2.37V25.95a2.37 2.37 0 014.73 0V74.5c0 1.3-1.05 2.37-2.36 2.37m-77.97-.01a2.37 2.37 0 01-2.37-2.37V2.37a2.37 2.37 0 014.73 0v72.12c0 1.3-1.06 2.37-2.36 2.37"/><path fill="#86888A" d="M168.22 49.91c-.09-14.43-11.48-26.14-25.48-26.14-14.06 0-25.49 11.8-25.49 26.3 0 14.74 11.43 26.73 25.49 26.73 8.56 0 16.13-4.46 20.75-11.27v5.44h4.73V49.91zm-25.48 22.16c-11.45 0-20.76-9.87-20.76-22 0-11.9 9.31-21.57 20.76-21.57s20.75 9.68 20.75 21.57c0 12.13-9.31 22-20.75 22m120.04-22.16c-.09-14.43-11.48-26.14-25.48-26.14-14.06 0-25.49 11.8-25.49 26.3 0 14.74 11.44 26.73 25.49 26.73 8.56 0 16.13-4.46 20.75-11.27v6.54h4.73V49.9zM237.3 72.07c-11.45 0-20.76-9.87-20.76-22 0-11.9 9.32-21.57 20.76-21.57s20.75 9.68 20.75 21.57c0 12.13-9.3 22-20.75 22M101.86 26.08v-.22a2.27 2.27 0 00-2.27-2.28h-.18a2.27 2.27 0 00-2.28 2.28v48.72a2.27 2.27 0 002.28 2.28h.18a2.28 2.28 0 002.27-2.28V48.55c.12-7.4 1.98-11.53 3.09-13.34l.12-.19a14.62 14.62 0 0110.65-6.1 2.3 2.3 0 002.09-2.27v-.18a2.3 2.3 0 00-2.56-2.26c-4 .43-7.22 1.84-9.77 3.75-1.5 1.1-3.62-.02-3.62-1.88m206.07 2.3c-2.89-3.06-6.9-4.61-11.91-4.61-5.22 0-9.26 1.57-12.33 3.87-1.5 1.12-3.62.11-3.62-1.75v-.07c0-1.24-1-2.24-2.23-2.24h-.27c-1.23 0-2.23 1-2.23 2.24v48.8c0 1.24 1 2.24 2.23 2.24h.27c1.23 0 2.23-1 2.23-2.23V49.24c0-9.26 2.58-13.62 3.43-14.8l.22-.3.05-.06c2.37-2.95 6.18-5.58 12.25-5.58 3.65 0 6.5 1.04 8.44 3.1 3.57 3.76 3.29 9.83 3.28 10.03V74.3c0 1.23 1 2.23 2.23 2.23h.27c1.23 0 2.23-1 2.23-2.23V41.77c.02-.33.42-8.12-4.55-13.4"/><path fill="#6E6E6E" d="M330.92 36.02c0-4.48 4.48-8.06 8.84-8.06a9.73 9.73 0 017.73 3.7 2.44 2.44 0 004.06-2.7c-2.76-3.42-7.31-5.7-11.57-5.7-7.49 0-14.09 5.26-14.09 13.1 0 8.72 8.05 11.74 15.1 14.31 5.12 1.78 10.02 3.78 10.07 10.08.05 6.72-5.82 12.1-12.53 11.7-5.43-.31-9.04-3.52-11.1-8.17a2.63 2.63 0 00-4.83 2.07c2.85 6.73 9.23 10.83 16.82 10.83 9.29 0 16.67-6.6 16.67-16.1 0-18.69-25.17-12.65-25.17-25.06z"/><path fill="#1199BE" d="M69.68 25.55v6.86c0 .3.1.6.26.85A30.31 30.31 0 0175 49.96c0 11.41-6.59 21.64-16.14 26.96h19.67a42.9 42.9 0 009.64-26.96 42.8 42.8 0 00-8.38-25.34c-.3-.4-.78-.64-1.28-.64h-7.26c-.86 0-1.57.7-1.57 1.57M29.24 76.92c-9.54-5.31-16.07-15.5-16.07-26.96 0-16.76 13.97-30.82 30.91-30.82a30.6 30.6 0 0118.27 6.1c1.03.77 2.5.02 2.5-1.26V20.7c0-.87.7-1.57 1.56-1.57h4.52a1.57 1.57 0 001-2.8 44.04 44.04 0 00-27.85-9.99C20.07 6.33 0 26.06 0 49.96c0 10.13 3.64 19.5 9.63 26.96h19.61zM13.1 86.86c1.65 0 2.47.96 2.47.96l-.6.89s-.7-.76-1.82-.76c-1.32 0-2.28 1-2.28 2.34 0 1.34.96 2.37 2.32 2.37 1.23 0 2.03-.88 2.03-.88l.5.92s-.9 1.05-2.62 1.05a3.37 3.37 0 01-3.52-3.44 3.38 3.38 0 013.52-3.45m11.8 0a3.44 3.44 0 110 6.9 3.44 3.44 0 110-6.9m0 5.8c1.25 0 2.27-.99 2.27-2.37a2.26 2.26 0 10-4.53 0 2.28 2.28 0 002.27 2.37m9.72-5.64h1.22v.87c0 .26-.02.48-.02.48h.02a2.68 2.68 0 012.47-1.5c1.55 0 2.26.83 2.26 2.51v4.22h-1.26v-3.93c0-.93-.2-1.65-1.24-1.65-1 0-1.81.66-2.08 1.6-.08.27-.1.57-.1.9v3.07h-1.27v-6.57zm12.6 4.88s.74.76 1.88.76c.55 0 1.1-.29 1.1-.82 0-1.2-3.39-.96-3.39-3.1 0-1.2 1.07-1.88 2.38-1.88 1.45 0 2.12.73 2.12.73l-.5.95s-.59-.58-1.63-.58c-.55 0-1.08.23-1.08.8 0 1.19 3.38.93 3.38 3.08 0 1.1-.94 1.91-2.38 1.91-1.61 0-2.5-.96-2.5-.96l.62-.9zm13.26-5.04c1.86 0 2.84 1.38 2.84 3.08 0 .17-.04.55-.04.55h-4.8c.07 1.44 1.1 2.17 2.27 2.17 1.13 0 1.95-.77 1.95-.77l.52.93s-.98.93-2.55.93a3.35 3.35 0 01-3.48-3.44c0-2.1 1.41-3.45 3.29-3.45m1.56 2.68c-.04-1.13-.74-1.68-1.59-1.68-.96 0-1.74.6-1.92 1.68h3.5zm7.48-5.12h1.28v1.28h-1.28v-1.28zm.02 2.6h1.26v6.58h-1.26v-6.58zm7.84-2.6h1.26v7.16c0 .8.31.94.7.94.12 0 .22-.02.22-.02v1.12s-.2.03-.41.03c-.72 0-1.77-.2-1.77-1.85v-7.38zm16.4 4.91h3.8v1.12h-3.8zm18.64-4.91h1.28v1.28h-1.28v-1.28zm.02 2.6h1.26v6.58h-1.26v-6.58zm7.91 0h1.23v.87c0 .26-.03.48-.03.48h.03a2.67 2.67 0 012.47-1.5c1.54 0 2.26.83 2.26 2.51v4.22h-1.26v-3.93c0-.93-.2-1.65-1.25-1.65-1 0-1.8.66-2.08 1.6-.08.27-.1.57-.1.9v3.07h-1.27v-6.57zm14.92 8.21c1.14 0 2.08-.5 2.08-1.84v-.9h-.02c-.39.65-1 1.03-1.95 1.03-1.83 0-2.94-1.47-2.94-3.37 0-1.88 1.06-3.29 2.88-3.29 1.58 0 2.06.98 2.06.98h.03l-.01-.21v-.61h1.2v6.3c0 2.18-1.64 3-3.3 3-.8 0-1.62-.21-2.26-.54l.42-.99s.82.44 1.8.44m2.11-5.07c0-1.71-.83-2.2-1.86-2.2-1.14 0-1.8.83-1.8 2.17 0 1.36.74 2.3 1.92 2.3.9 0 1.74-.55 1.74-2.27m10.72-3.3c1.86 0 2.85 1.38 2.85 3.08 0 .17-.04.55-.04.55h-4.8c.07 1.44 1.1 2.17 2.27 2.17 1.13 0 1.95-.77 1.95-.77l.52.93s-.98.93-2.55.93a3.35 3.35 0 01-3.48-3.44c0-2.1 1.41-3.45 3.28-3.45m1.57 2.68c-.04-1.13-.74-1.68-1.59-1.68-.96 0-1.74.6-1.92 1.68h3.5zm-1.17-5.12h1.35l-1.25 1.65h-1.05l.95-1.65zm8.67 2.6h1.22v.87c0 .26-.03.48-.03.48h.03a2.67 2.67 0 012.47-1.5c1.55 0 2.26.83 2.26 2.51v4.22h-1.26v-3.93c0-.93-.2-1.65-1.25-1.65-1 0-1.8.66-2.08 1.6-.08.27-.1.57-.1.9v3.07h-1.26v-6.57zm12.5-2.6h1.28v1.28h-1.28v-1.28zm.02 2.6h1.26v6.58h-1.26v-6.58zm10.75-.16c1.86 0 2.84 1.38 2.84 3.08l-.03.55h-4.8c.06 1.44 1.09 2.17 2.26 2.17 1.13 0 1.95-.77 1.95-.77l.52.93s-.98.93-2.55.93a3.35 3.35 0 01-3.48-3.44c0-2.1 1.41-3.45 3.29-3.45m1.56 2.68c-.04-1.13-.74-1.68-1.59-1.68-.96 0-1.74.6-1.92 1.68h3.5zm7.5-2.52h1.22v1.14c0 .28-.03.5-.03.5h.03c.3-.97 1.07-1.72 2.08-1.72.17 0 .33.02.33.02v1.25s-.17-.04-.37-.04c-.8 0-1.55.58-1.84 1.55-.12.38-.16.78-.16 1.19v2.69h-1.26v-6.58zm9.54-2.6h1.27v1.28h-1.27v-1.28zm.01 2.6h1.26v6.58h-1.26v-6.58zm10.75-.16c1.86 0 2.85 1.38 2.85 3.08 0 .17-.04.55-.04.55h-4.8c.07 1.44 1.1 2.17 2.27 2.17 1.13 0 1.95-.77 1.95-.77l.52.93s-.98.93-2.55.93a3.35 3.35 0 01-3.48-3.44c0-2.1 1.41-3.45 3.28-3.45m1.56 2.68c-.04-1.13-.74-1.68-1.58-1.68-.96 0-1.74.6-1.93 1.68h3.51zm15.71-.21h3.8v1.12h-3.8zm18.65-2.31h1.23v1.14c0 .28-.03.5-.03.5h.03c.3-.97 1.06-1.72 2.08-1.72l.32.02v1.25s-.17-.04-.36-.04c-.81 0-1.55.58-1.85 1.55-.12.38-.16.78-.16 1.19v2.69h-1.26v-6.58zm12.35-.16c1.86 0 2.85 1.38 2.85 3.08 0 .17-.04.55-.04.55h-4.8c.07 1.44 1.1 2.17 2.27 2.17 1.13 0 1.95-.77 1.95-.77l.52.93s-.98.93-2.55.93a3.35 3.35 0 01-3.49-3.44c0-2.1 1.42-3.45 3.3-3.45m1.55 2.68c-.04-1.13-.74-1.68-1.58-1.68-.97 0-1.75.6-1.93 1.68h3.51zm-1.17-5.12h1.36l-1.25 1.65h-1.06l.95-1.65zm12.1 5.07h.3v-.12c0-1.08-.62-1.44-1.45-1.44-1.02 0-1.84.64-1.84.64l-.52-.93s.95-.78 2.46-.78c1.67 0 2.6.91 2.6 2.58v4.16h-1.17v-.63c0-.3.03-.52.03-.52h-.03s-.53 1.3-2.1 1.3c-1.13 0-2.24-.69-2.24-2 0-2.17 2.86-2.26 3.96-2.26m-1.45 3.25c1.06 0 1.75-1.12 1.75-2.1v-.2h-.32c-.95 0-2.67.06-2.67 1.24 0 .54.42 1.06 1.24 1.06m9.49-8.32h1.26v7.16c0 .8.31.94.7.94.12 0 .22-.02.22-.02v1.12s-.19.03-.41.03c-.72 0-1.77-.2-1.77-1.85v-7.38zm8.19 0h1.27v1.28h-1.27v-1.28zm.01 2.6h1.26v6.58h-1.26v-6.58zm8 4.88s.74.76 1.88.76c.55 0 1.1-.29 1.1-.82 0-1.2-3.38-.96-3.38-3.1 0-1.2 1.06-1.88 2.37-1.88 1.45 0 2.12.73 2.12.73l-.5.95s-.59-.58-1.63-.58c-.54 0-1.08.23-1.08.8 0 1.19 3.38.93 3.38 3.08 0 1.1-.93 1.91-2.38 1.91-1.6 0-2.5-.96-2.5-.96l.62-.9zm13.85-2.41h.3v-.12c0-1.08-.62-1.44-1.45-1.44-1.02 0-1.84.64-1.84.64l-.52-.93s.95-.78 2.46-.78c1.67 0 2.6.91 2.6 2.58v4.16h-1.17v-.63c0-.3.03-.52.03-.52h-.03s-.53 1.3-2.1 1.3c-1.13 0-2.24-.69-2.24-2 0-2.17 2.86-2.26 3.96-2.26m-1.45 3.25c1.07 0 1.75-1.12 1.75-2.1v-.2h-.32c-.95 0-2.67.06-2.67 1.24 0 .54.42 1.06 1.24 1.06m9.8-4.62h-.86v-1.01h.9v-1.9h1.22v1.9h1.59v1.01h-1.59v2.93c0 1.31.93 1.48 1.4 1.48.19 0 .3-.03.3-.03v1.12s-.18.03-.43.03c-.85 0-2.53-.26-2.53-2.46v-3.07zm9.05-3.7h1.27v1.28h-1.27v-1.28zm.01 2.6h1.26v6.58h-1.26v-6.58zm10.99-.16a3.44 3.44 0 110 6.9 3.45 3.45 0 110-6.9m0 5.8c1.25 0 2.26-.99 2.26-2.37a2.26 2.26 0 10-4.52 0 2.28 2.28 0 002.26 2.37m9.72-5.64H348v.87c0 .26-.02.48-.02.48h.02a2.68 2.68 0 012.47-1.5c1.55 0 2.27.83 2.27 2.51v4.22h-1.27v-3.93c0-.93-.19-1.65-1.24-1.65-1 0-1.81.66-2.08 1.6-.08.27-.1.57-.1.9v3.07h-1.27v-6.57z"/></svg>